<svg id="Capa_1" enable-background="new 0 0 512 512" height="512" viewBox="0 0 512 512" width="512" xmlns="http://www.w3.org/2000/svg"><g><path d="m465.516 387.243c10.204-10.761 16.484-25.278 16.484-41.243 0-33.084-26.916-60-60-60s-60 26.916-60 60c0 15.965 6.28 30.482 16.484 41.243-17.609 9.768-31.617 25.267-39.484 43.963-7.867-18.696-21.875-34.194-39.484-43.963 10.204-10.761 16.484-25.278 16.484-41.243 0-33.084-26.916-60-60-60s-60 26.916-60 60c0 15.965 6.28 30.482 16.484 41.243-17.609 9.768-31.617 25.267-39.484 43.963-7.867-18.696-21.875-34.194-39.484-43.963 10.204-10.761 16.484-25.278 16.484-41.243 0-33.084-26.916-60-60-60s-60 26.916-60 60c0 15.965 6.28 30.482 16.484 41.243-27.695 15.363-46.484 44.905-46.484 78.757v15h512v-15c0-33.852-18.789-63.394-46.484-78.757zm-375.516-71.243c16.542 0 30 13.458 30 30s-13.458 30-30 30-30-13.458-30-30 13.458-30 30-30zm-58.102 135c6.677-25.85 30.195-45 58.102-45 27.906 0 51.425 19.15 58.102 45zm224.102-135c16.542 0 30 13.458 30 30s-13.458 30-30 30-30-13.458-30-30 13.458-30 30-30zm-58.102 135c6.677-25.85 30.195-45 58.102-45 27.906 0 51.425 19.15 58.102 45zm224.102-135c16.542 0 30 13.458 30 30s-13.458 30-30 30-30-13.458-30-30 13.458-30 30-30zm-58.102 135c6.677-25.85 30.195-45 58.102-45 27.906 0 51.425 19.15 58.102 45z"/><path d="m346 211c0-33.852-18.789-63.394-46.484-78.757 10.204-10.761 16.484-25.278 16.484-41.243 0-33.084-26.916-60-60-60s-60 26.916-60 60c0 15.965 6.28 30.482 16.484 41.243-27.695 15.363-46.484 44.905-46.484 78.757v15h180zm-90-150c16.542 0 30 13.458 30 30s-13.458 30-30 30-30-13.458-30-30 13.458-30 30-30zm-58.102 135c6.677-25.85 30.195-45 58.102-45 27.906 0 51.425 19.15 58.102 45z"/><path d="m437 256h30v-150h-105v30h75z"/><path d="m75 136h75v-30h-105v150h30z"/></g></svg>